<svg xmlns="http://www.w3.org/2000/svg" viewBox="0 0 1618.64 1792.04"><defs><style>.cls-1{fill:#fff;}.cls-1,.cls-2{fill-rule:evenodd;}.cls-2{fill:#f5df4e;}</style></defs><g id="Слой_2" data-name="Слой 2"><g id="Layer_1" data-name="Layer 1"><path class="cls-1" d="M1386,918.22a13.54,13.54,0,1,1-13.54,13.54A13.54,13.54,0,0,1,1386,918.22m83.31-71.82a25,25,0,1,1-25,25A25,25,0,0,1,1469.32,846.4ZM1235,1170.19a14.58,14.58,0,1,1-14.57,14.57A14.58,14.58,0,0,1,1235,1170.19Zm85.43-70.78a25,25,0,1,1-25,25A25,25,0,0,1,1320.45,1099.41Zm105.33-33.34a28.14,28.14,0,1,1-28.14,28.13A28.12,28.12,0,0,1,1425.78,1066.07Zm86.21,43.74a14.57,14.57,0,1,1-14.57,14.56A14.56,14.56,0,0,1,1512,1109.81Zm-65.38,46.33a30.92,30.92,0,1,1-30.92,30.91A30.92,30.92,0,0,1,1446.61,1156.14Zm-70.28-374.06A21.32,21.32,0,1,1,1355,803.39,21.32,21.32,0,0,1,1376.33,782.08Zm157.53-44a31.23,31.23,0,1,1-31.22,31.23A31.25,31.25,0,0,1,1533.86,738.1Zm-184.52,441.11a21.33,21.33,0,1,1-21.32,21.32A21.34,21.34,0,0,1,1349.34,1179.21Zm207.31-119.32c-13,1-28.74-9.51-27.18-33.92,1.23-19.55,19.33-23.17,19.33-44.08a34.75,34.75,0,1,0-69.5,0c0,18.24,17.22,19.11,17.22,36.49a23.6,23.6,0,0,1-47.2,0c0-16.68,16.94-23.8,4.79-42.38-7.77-7.2-20-10-29.56-5a25.19,25.19,0,0,0-9.33,8.32c-14,20.85,14.56,37-2.39,59.17a34.76,34.76,0,0,1-62.36-21.13c0-15,13.13-50.43-13.51-53-13.74-1.33-25,11.18-25,25,0,18.07,17.81,19.86,17.81,39.61a42.2,42.2,0,0,1-7.71,24.36c-8.53,10.73-19.89,16.15-33.19,18-23.86.46-43.83-18.14-43.83-42.32a42.19,42.19,0,0,1,6-21.83,481.92,481.92,0,0,0,42.15-197.77c0-267.21-216.7-483.92-483.9-483.92S325.4,542.11,325.4,809.32s216.72,483.92,483.94,483.92q12.69,0,25.25-.65v325.62c-8.38.27-16.8.44-25.25.44C362.43,1618.65,0,1256.22,0,809.32S362.43,0,809.34,0s809.3,362.42,809.3,809.32a811.44,811.44,0,0,1-24.42,197.91C1593.52,1007.23,1587,1053.23,1556.65,1059.89Z"/><path class="cls-2" d="M1336.6,1289.12c35.22,0,73.2,7,98.55,33.55,22.92,24,31.91,54.34,31.91,87.13v49c0,34.24-8,68.17-32.71,93.17-25.35,25.65-61.49,33.1-96.35,33.1H1072.24c-22,0-29.69,12.13-29.69,33.18v59.44c0,5.72,1.47,8,7.31,8H1443.6c14.08,0,22.77,7.77,22.77,22.08V1770c0,14.31-8.69,22.08-22.77,22.08H997.41c-18.45,0-41.16-2.7-55-16.24-13.23-12.91-16.7-32.14-16.7-49.89v-107.7c0-34.36,7.85-68.75,32.69-93.87,25.38-25.64,61.5-33.1,96.37-33.1h265.76c21.76,0,29.68-11.52,29.68-32.48v-30.07c0-8.68-1.55-17.92-7-24.94s-15.28-8.25-23.39-8.25h-372c-14,0-22.07-8.11-22.07-22.07V1311.2c0-14,8.11-22.08,22.07-22.08Z"/></g></g></svg>